<svg id="Layer_1" version="1.1" viewBox="0 0 64 64" width="32" height="32" xml:space="preserve" xmlns="http://www.w3.org/2000/svg" enable-background="new 0 0 64 64">
  <path d="M56.6 34.5c0-1.9-1-3.6-2.6-4.5.8-.9 1.3-2.1 1.3-3.4 0-2.5-1.8-4.6-4.2-5.1.4-1.4.4-3-1.6-5.1-.9-.9-2.1-1.5-3.3-1.6-1 0-2 .3-2.8.8-.3-2.6-2.5-4.7-5.2-4.7-2.9 0-5.2 2.3-5.2 5.2v31.3c0 .3 0 .6.1.8 0 .2-.1.4-.1.6 0 2.9 2.3 5.2 5.2 5.2 1.5 0 2.8-.6 3.7-1.6.5.1 1 .2 1.5.2 2.9 0 5.2-2.3 5.2-5.2 2.9 0 5.2-2.3 5.2-5.2 0-1.1-.3-2.1-.9-2.9 2.2-.6 3.7-2.5 3.7-4.8z" fill="#417ebf"></path>
  <path d="M7.4 34.5c0-1.9 1-3.6 2.6-4.5-.8-.9-1.3-2.1-1.3-3.4 0-2.5 1.8-4.6 4.2-5.1-.4-1.4-.4-3 1.5-5.1 1-1 2.4-1.7 3.9-1.6.8.1 1.6.3 2.3.7.3-2.6 2.5-4.7 5.2-4.7 2.9 0 5.2 2.3 5.2 5.2v31.3c0 .3 0 .6-.1.8 0 .2.1.4.1.6 0 2.9-2.3 5.2-5.2 5.2-1.5 0-2.8-.6-3.7-1.6-.5.1-1 .2-1.5.2-2.9 0-5.2-2.3-5.2-5.2-2.9 0-5.2-2.3-5.2-5.2 0-1.1.3-2.1.9-2.9-2.2-.5-3.7-2.4-3.7-4.7z" fill="#9ea834"></path>
  <path d="M33 25c2.8 0 7-.5 8.4-6.1" fill="none" stroke="#4d1515" stroke-width="2" stroke-miterlimit="10"></path>
  <path d="M44 27s-5 0-5.5-3.9M46.6 45.2s-1.5-3.8-6.1-2.6M39.7 46.8s2.4-5-3.1-8.2M48 28.3s-1.2 5.4 4.9 7.3" fill="none" stroke="#4d1515" stroke-width="2" stroke-miterlimit="10"></path>
  <path d="M31 30h-7" fill="none" stroke="#182636" stroke-width="2" stroke-miterlimit="10"></path>
  <circle cx="22" cy="30" r="2" fill="none" stroke="#182636" stroke-width="2" stroke-miterlimit="10"></circle>
  <path d="m25.2 22 3 3H31" fill="none" stroke="#182636" stroke-width="2" stroke-miterlimit="10"></path>
  <circle cx="24" cy="21" r="2" fill="none" stroke="#182636" stroke-width="2" stroke-miterlimit="10"></circle>
  <path d="m24.6 43.1 2.1-2.1H31" fill="none" stroke="#182636" stroke-width="2" stroke-miterlimit="10"></path>
  <circle cx="23" cy="44" r="2" fill="none" stroke="#182636" stroke-width="2" stroke-miterlimit="10"></circle>
  <path d="m18.6 38.1 2.1-2.1H31" fill="none" stroke="#182636" stroke-width="2" stroke-miterlimit="10"></path>
  <circle cx="17" cy="39" r="2" fill="none" stroke="#182636" stroke-width="2" stroke-miterlimit="10"></circle>
  <path d="M44 34s2.9 1.9 5.4-.6" fill="none" stroke="#4d1515" stroke-width="2" stroke-miterlimit="10"></path>
</svg>
