<svg viewBox="0 0 60 54" xmlns="http://www.w3.org/2000/svg"><g fill="none" fill-rule="evenodd"><g fill-rule="nonzero" transform="translate(1 1)"><path d="M43.5 51.11a3.766 3.766 0 0 1-1.86.49c-5.28.14-14.21-8.33-21.3-20.6-7.36-12.74-10.16-25.14-6.86-29.22A3.6 3.6 0 0 1 14.5.89C19.28-1.88 29.65 7.13 37.66 21s10.62 27.35 5.84 30.11Z" fill="#699419" class="fill-ad1457"></path><path d="M41.64 51.6c-5.28.14-14.21-8.33-21.3-20.6-7.36-12.74-10.16-25.14-6.86-29.22 5.27-.13 14.2 8.34 21.29 20.61 7.35 12.73 10.15 25.12 6.87 29.21Z" fill="#699419" class="fill-e91e63"></path><path d="M37.66 31C29.65 44.87 19.28 53.88 14.5 51.11a3.6 3.6 0 0 1-1.02-.89c-3.3-4.08-.5-16.48 6.86-29.22C27.43 8.73 36.36.26 41.64.4c.652 0 1.293.168 1.86.49 4.78 2.76 2.17 16.24-5.84 30.11Z" fill="#5dabf0" class="fill-1566c0"></path><path d="M34.77 29.61c-7.09 12.27-16.02 20.74-21.29 20.61-3.3-4.08-.5-16.48 6.86-29.22C27.43 8.73 36.36.26 41.64.4c3.28 4.09.48 16.48-6.87 29.21Z" fill="#54acf5" class="fill-2296f3"></path><path d="M58 26c0 5.52-12.98 10-29 10-.5 0-1 0-1.49-.01h-.02C12.17 35.72 0 31.35 0 26c0-5.35 12.17-9.72 27.49-9.99h.02C28 16 28.5 16 29 16c16.02 0 29 4.48 29 10Z" fill="#b873c4" class="fill-ffb301"></path><path d="M55 26c0 5.35-12.17 9.72-27.49 9.99h-.02C12.17 35.72 0 31.35 0 26c0-5.35 12.17-9.72 27.49-9.99h.02C42.83 16.28 55 20.65 55 26Z" fill="#b873c4" class="fill-fec108"></path><circle cx="12" cy="9" fill="#050505" r="4" class="fill-ffeb3a"></circle><circle cx="52" cy="20" fill="#000000" r="4" class="fill-02a9f4"></circle><circle cx="35" cy="49" fill="#050505" r="4" class="fill-ffeb3a"></circle><circle cx="29" cy="26" fill="#699419" r="5" class="fill-e91e63"></circle></g><g stroke="#000000" stroke-linecap="round" stroke-linejoin="round" stroke-width="2" transform="translate(1 -4)" class="stroke-000000"><path d="M12.14 11.01c.15-2.49.92-4.29 2.36-5.12 3.16-1.83 8.76 1.49 14.5 7.95a66.131 66.131 0 0 1 5.66 7.35c1.03 1.52 2.03 3.13 3 4.81.97 1.68 1.86 3.35 2.67 5a68.6 68.6 0 0 1 3.54 8.58c2.72 8.2 2.79 14.71-.37 16.53-1.49.87-3.54.58-5.88-.65M32.78 51.99A45.846 45.846 0 0 1 29 48.16a66.131 66.131 0 0 1-5.66-7.35 79.018 79.018 0 0 1-3-4.81c-.97-1.68-1.86-3.35-2.67-5a68.6 68.6 0 0 1-3.54-8.58 46.868 46.868 0 0 1-1.48-5.49"></path><ellipse cx="29" cy="31" rx="29" ry="10" transform="rotate(-60 29 31)"></ellipse><path d="M49.24 23.84a44.815 44.815 0 0 0-5.37-1.42 69.425 69.425 0 0 0-9.21-1.23C32.83 21.07 30.94 21 29 21s-3.83.07-5.66.19c-3.094.204-6.17.615-9.21 1.23C5.67 24.16 0 27.35 0 31c0 3.65 5.67 6.84 14.13 8.58a69.425 69.425 0 0 0 9.21 1.23c1.83.12 3.72.19 5.66.19s3.83-.07 5.66-.19a69.425 69.425 0 0 0 9.21-1.23C52.33 37.84 58 34.65 58 31c0-1.68-1.2-3.26-3.32-4.65"></path><path d="M26.172 33.828a4 4 0 1 1 5.656 0M9 14a3 3 0 1 1 3 3M55 25a3 3 0 1 1-3-3M32 54a3 3 0 1 1 3 3"></path></g></g></svg>