<svg viewBox="0 0 60 60" xmlns="http://www.w3.org/2000/svg"><g fill-rule="nonzero" fill="none"><g transform="translate(1 1)"><circle cx="29" cy="29" fill="#5c4933" r="29" class="fill-558b30"></circle><ellipse cx="27.5" cy="29" fill="#558b30" rx="27.5" ry="29" class="fill-8bc34a"></ellipse></g><path d="M51.213 8.787c-.066-.066-.14-.12-.21-.18C39.354-2.868 20.65-2.87 8.998 8.606c-.07.06-.144.115-.21.181-.066.066-.12.14-.18.21-11.476 11.651-11.476 30.355 0 42.006.06.07.114.144.18.21.036.036.081.06.119.094 11.674 11.59 30.514 11.59 42.188 0 .038-.035.083-.058.119-.094.066-.066.12-.14.18-.21 11.476-11.651 11.476-30.355 0-42.006-.06-.07-.114-.144-.18-.21Zm-8.254 18.889a57.935 57.935 0 0 0-2.562-15.891c2.94-1.52 5.427-2.31 7.186-2.31a3.117 3.117 0 0 1 2.12.653l.142.14c1.99 2.159-.485 9.103-6.886 17.408Zm6.886 22.055c-.037.039-.075.077-.114.114-1.404 1.295-4.826.71-9.336-1.624a57.923 57.923 0 0 0 2.564-15.897c6.401 8.305 8.876 15.249 6.886 17.407Zm-39.69 0c-1.99-2.158.485-9.102 6.886-17.407a57.925 57.925 0 0 0 2.564 15.896c-4.51 2.332-7.932 2.918-9.337 1.625a25.408 25.408 0 0 1-.113-.114Zm0-39.462.142-.142a3.112 3.112 0 0 1 2.12-.652c1.759 0 4.246.79 7.186 2.31a57.937 57.937 0 0 0-2.562 15.89c-6.4-8.304-8.876-15.248-6.886-17.406Zm27.778.563A64.305 64.305 0 0 0 30 16.33a64.286 64.286 0 0 0-7.932-5.5C24.088 5.429 26.92 2 30 2c3.081 0 5.913 3.43 7.933 8.832Zm-2.646-8.325a27.872 27.872 0 0 1 11.374 5.005 20.446 20.446 0 0 0-6.949 2.352 21.378 21.378 0 0 0-4.425-7.357Zm-11.08 33.286a87.606 87.606 0 0 1-5.206-5.687L19 30l.001-.106a87.626 87.626 0 0 1 5.206-5.687A87.647 87.647 0 0 1 30 18.906a87.662 87.662 0 0 1 5.793 5.301 87.606 87.606 0 0 1 5.206 5.687L41 30l-.001.106a87.626 87.626 0 0 1-11 10.983 87.564 87.564 0 0 1-5.792-5.296Zm4.218 6.576a60.89 60.89 0 0 1-7.02 4.861 56.745 56.745 0 0 1-2.324-13.966 90.11 90.11 0 0 0 3.712 3.943c1.8 1.8 3.7 3.537 5.632 5.162ZM19.08 26.736c.189-4.731.968-9.42 2.321-13.959a60.387 60.387 0 0 1 7.025 4.847 89.522 89.522 0 0 0-9.346 9.112Zm18.126 10.471a90.082 90.082 0 0 0 3.712-3.943 56.752 56.752 0 0 1-2.324 13.967 60.908 60.908 0 0 1-7.02-4.862 89.566 89.566 0 0 0 5.632-5.162Zm0-14.414a89.641 89.641 0 0 0-5.634-5.17 60.404 60.404 0 0 1 7.025-4.846 56.765 56.765 0 0 1 2.32 13.96 90.045 90.045 0 0 0-3.711-3.944ZM20.288 9.863a20.43 20.43 0 0 0-6.947-2.352 27.872 27.872 0 0 1 11.372-5.003 21.373 21.373 0 0 0-4.425 7.354Zm-.002 40.268a21.378 21.378 0 0 0 4.427 7.362 27.873 27.873 0 0 1-11.383-5.011 20.39 20.39 0 0 0 6.956-2.35Zm1.78-.967A64.287 64.287 0 0 0 30 43.662a64.252 64.252 0 0 0 7.934 5.502C35.914 54.57 33.082 58 30 58s-5.914-3.43-7.934-8.836Zm17.648.967a20.395 20.395 0 0 0 6.956 2.35 27.873 27.873 0 0 1-11.383 5.012 21.378 21.378 0 0 0 4.427-7.362ZM7.512 13.34C7.95 17.76 11.489 23.954 16.33 30c-4.841 6.046-8.38 12.239-8.818 16.66a27.936 27.936 0 0 1 0-33.32Zm44.976 33.32C52.05 42.24 48.511 36.046 43.67 30c4.841-6.046 8.38-12.239 8.818-16.66a27.936 27.936 0 0 1 0 33.32Z" fill="#000000" class="fill-000000"></path></g></svg>